<?xml version="1.0" encoding="utf-8"?>
<!-- Generator: Adobe Illustrator 20.1.0, SVG Export Plug-In . SVG Version: 6.00 Build 0)  -->
<!DOCTYPE svg PUBLIC "-//W3C//DTD SVG 1.1//EN" "http://www.w3.org/Graphics/SVG/1.1/DTD/svg11.dtd">
<svg version="1.1" id="Layer_1" xmlns="http://www.w3.org/2000/svg" xmlns:xlink="http://www.w3.org/1999/xlink" x="0px" y="0px"
	 width="128px" height="128px" viewBox="0 0 128 128" style="enable-background:new 0 0 128 128;" xml:space="preserve">
<g>
	<g>
		<circle cx="60.1" cy="99" r="19.9"/>
	</g>
	<g>
		<path d="M84.9,75.3c5.9,6.2,9.5,14.5,9.5,23.7c0,11.7-5.8,21.9-14.7,28.1c16.4-5.1,30-17.4,36.1-32.4c8.4-20.7,0.6-36.2-12.6-50.3
			c0.4,1.8,0.6,3.7,0.6,5.7C103.8,62,95.8,72.1,84.9,75.3z"/>
	</g>
	<g>
		<circle cx="77.6" cy="50.1" r="15.2"/>
	</g>
	<g>
		<path d="M33.9,121c-5-6-8.1-13.7-8.1-22.1c0-17.5,13.2-32,30.2-34c-2.9-4.2-4.6-9.4-4.6-14.9c0-14.5,11.7-26.2,26.2-26.2
			c1.2,0,2.4,0.1,3.5,0.2C72.6,16.7,64,9.2,57.2,1c3.5,35.9-32.7,22.9-46.1,56C2.1,79.2,10.2,106.7,33.9,121z"/>
	</g>
</g>
</svg>
