<?xml version="1.0" encoding="utf-8"?>
<!-- Generator: Adobe Illustrator 20.1.0, SVG Export Plug-In . SVG Version: 6.00 Build 0)  -->
<!DOCTYPE svg PUBLIC "-//W3C//DTD SVG 1.1//EN" "http://www.w3.org/Graphics/SVG/1.1/DTD/svg11.dtd">
<svg version="1.1" id="Layer_1" xmlns="http://www.w3.org/2000/svg" xmlns:xlink="http://www.w3.org/1999/xlink" x="0px" y="0px"
	 width="128px" height="128px" viewBox="0 0 128 128" style="enable-background:new 0 0 128 128;" xml:space="preserve">
<style type="text/css">
	.st0{fill:#010101;}
</style>
<g>
	<path class="st0" d="M15.5,45.9c1.5,1.1,6.1,4.3,13.7,9.6s13.5,9.4,17.6,12.2c0.4,0.3,1.4,1,2.8,2c1.5,1.1,2.7,1.9,3.6,2.5
		c1,0.6,2.1,1.4,3.5,2.2c1.4,0.8,2.6,1.4,3.9,1.8c1.2,0.4,2.3,0.6,3.4,0.6H64h0.1c1,0,2.1-0.2,3.4-0.6c1.2-0.4,2.5-1,3.9-1.8
		c1.4-0.8,2.5-1.5,3.5-2.2c1-0.6,2.2-1.5,3.6-2.5c1.5-1.1,2.4-1.7,2.9-2c4.1-2.9,14.6-10.1,31.4-21.8c3.3-2.3,6-5,8.2-8.2
		c2.2-3.2,3.3-6.6,3.3-10.1c0-3-1.1-5.5-3.2-7.6c-2.1-2.1-4.6-3.2-7.5-3.2H14.6c-3.4,0-6.1,1.2-7.9,3.5c-1.9,2.3-2.8,5.2-2.8,8.7
		c0,2.8,1.2,5.9,3.7,9.2S12.7,44,15.5,45.9z"/>
	<path class="st0" d="M117.4,53.1C102.7,63,91.6,70.7,84,76.2c-2.5,1.9-4.6,3.3-6.2,4.4c-1.6,1.1-3.7,2.1-6.3,3.2
		c-2.6,1.1-5.1,1.6-7.4,1.6H64h-0.1c-2.3,0-4.7-0.5-7.4-1.6c-2.6-1.1-4.7-2.2-6.3-3.2c-1.6-1-3.7-2.5-6.2-4.4
		c-6-4.4-17.1-12.1-33.3-23.1c-2.5-1.7-4.8-3.6-6.8-5.8v53.2c0,3,1.1,5.5,3.2,7.6c2.1,2.1,4.6,3.2,7.6,3.2h98.7
		c2.9,0,5.5-1.1,7.6-3.2c2.1-2.1,3.2-4.6,3.2-7.6V47.2C122.2,49.4,119.9,51.3,117.4,53.1z"/>
</g>
</svg>
