<?xml version="1.0" encoding="UTF-8"?>
<svg width="310px" height="204px" viewBox="0 0 310 204" version="1.1" xmlns="http://www.w3.org/2000/svg" xmlns:xlink="http://www.w3.org/1999/xlink">
    <title>2</title>
    <defs>
        <polygon id="path-1" points="0 202.674874 309.954762 202.674874 309.954762 0.234657873 0 0.234657873"></polygon>
    </defs>
    <g id="Page-1" stroke="none" stroke-width="1" fill="none" fill-rule="evenodd">
        <g id="01b.-Homepage-Copy" transform="translate(-644.000000, -512.000000)">
            <g id="Intro" transform="translate(-19.000000, 0.000000)">
                <g id="Items" transform="translate(274.000000, 512.000000)">
                    <g id="2" transform="translate(389.000000, 0.000000)">
                        <polygon id="Fill-1" fill="#7AD6FF" points="38.0769259 160.2974 272.362011 160.2974 272.362011 9.21249427 38.0769259 9.21249427"></polygon>
                        <polygon id="Fill-2" fill="#60C8F7" points="272.362011 201.753625 38.0769259 201.753625 38.0769259 85.6761967 272.362011 92.6215967"></polygon>
                        <g id="Group-24">
                            <path d="M149.500321,26.5318792 C191.53794,26.5318792 230.129447,59.001576 230.129447,88.915414 C230.129447,118.829252 179.0229,139.074838 136.98562,139.074838 C94.9480014,139.074838 60.4598136,118.939107 70.9230242,91.0228155 C85.6946355,51.611765 107.463041,26.5318792 149.500321,26.5318792 Z" id="Fill-3" fill="#96E9FF"></path>
                            <path d="M232.686229,76.1725181 L232.58775,179.509935 C232.58775,181.773428 230.801579,183.608279 228.5978,183.608279 L156.83929,183.608279 C155.214544,183.608279 153.656129,182.945327 152.506861,181.765085 L149.550779,178.422513 C149.072933,177.931296 148.822504,177.253396 148.864129,176.560547 L152.946128,76.4999962 C153.019226,75.2721272 153.976273,74.2949075 155.172242,74.2274651 L227.868509,70.9005379 C228.32199,70.8751601 228.767686,71.0302081 229.112534,71.3343942 L231.703125,73.9789015 C232.327845,74.5274795 232.686229,75.3287927 232.686229,76.1725181" id="Fill-5" fill="#1B7386"></path>
                            <path d="M143.352753,70.8977915 L228.163373,70.8977915 C228.971854,70.8977915 229.627031,71.5708251 229.627031,72.4009925 L229.627031,178.405861 C229.627031,179.236377 228.971854,179.90941 228.163373,179.90941 L143.352753,179.90941 C142.544611,179.90941 141.889434,179.236377 141.889434,178.405861 L141.889434,72.4009925 C141.889434,71.5708251 142.544611,70.8977915 143.352753,70.8977915" id="Fill-7" fill="#28ADD1"></path>
                            <mask id="mask-2" fill="white">
                                <use xlink:href="#path-1"></use>
                            </mask>
                            <g id="Clip-10"></g>
                            <polygon id="Fill-9" fill="#1D8299" mask="url(#mask-2)" points="156.386046 88.4781855 204.51959 88.4781855 204.51959 84.4100871 156.386046 84.4100871"></polygon>
                            <polygon id="Fill-11" fill="#1D8299" mask="url(#mask-2)" points="156.386046 116.518932 204.51959 116.518932 204.51959 112.451181 156.386046 112.451181"></polygon>
                            <polygon id="Fill-12" fill="#1D8299" mask="url(#mask-2)" points="155.652018 135.947561 220.69056 135.947561 220.69056 131.277696 155.652018 131.277696"></polygon>
                            <polygon id="Fill-13" fill="#56BED6" mask="url(#mask-2)" points="156.386046 100.554549 213.039942 100.554549 213.039942 93.098686 156.386046 93.098686"></polygon>
                            <polygon id="Fill-14" fill="#56BED6" mask="url(#mask-2)" points="155.652018 149.252836 220.69056 149.252836 220.69056 140.69356 155.652018 140.69356"></polygon>
                            <polygon id="Fill-15" fill="#D4D3D4" mask="url(#mask-2)" points="155.652018 177.53276 220.69056 177.53276 220.69056 168.973484 155.652018 168.973484"></polygon>
                            <path d="M181.152802,57.1975263 L181.054323,160.534596 C181.054323,162.798436 179.268152,164.633287 177.064373,164.633287 L105.306201,164.633287 C103.681117,164.633287 102.122702,163.970335 100.973772,162.790093 L98.017352,159.447174 C97.5395056,158.956305 97.2894147,158.278404 97.3307017,157.585555 L101.412701,57.5250044 C101.485799,56.2967877 102.442845,55.3199156 103.638815,55.2524732 L176.335082,51.9255461 C176.788562,51.9001682 177.234259,52.0552163 177.579107,52.3590548 L180.169698,55.0039097 C180.794417,55.5524877 181.152802,56.3538009 181.152802,57.1975263" id="Fill-16" fill="#688187" mask="url(#mask-2)"></path>
                            <path d="M91.461449,51.8245563 L176.272069,51.8245563 C177.080211,51.8245563 177.735727,52.4975898 177.735727,53.3277572 L177.735727,159.332626 C177.735727,160.163141 177.080211,160.836175 176.272069,160.836175 L91.461449,160.836175 C90.6533066,160.836175 89.9981292,160.163141 89.9981292,159.332626 L89.9981292,53.3277572 C89.9981292,52.4975898 90.6533066,51.8245563 91.461449,51.8245563" id="Fill-17" fill="#FFFFFF" mask="url(#mask-2)"></path>
                            <polygon id="Fill-18" fill="#28ADD1" mask="url(#mask-2)" points="104.494708 71.221967 152.628252 71.221967 152.628252 67.1542163 104.494708 67.1542163"></polygon>
                            <polygon id="Fill-19" fill="#28ADD1" mask="url(#mask-2)" points="104.49437 100.776692 143.784372 100.776692 143.784372 96.7089408 104.49437 96.7089408"></polygon>
                            <polygon id="Fill-20" fill="#DDE6E8" mask="url(#mask-2)" points="104.494708 82.9951871 161.148604 82.9951871 161.148604 75.5393243 104.494708 75.5393243"></polygon>
                            <polygon id="Fill-21" fill="#DDE6E8" mask="url(#mask-2)" points="104.494708 113.395375 161.148604 113.395375 161.148604 105.939512 104.494708 105.939512"></polygon>
                            <polygon id="Fill-22" fill="#EAE8E8" mask="url(#mask-2)" points="96.0812959 167.456725 161.119839 167.456725 161.119839 158.897101 96.0812959 158.897101"></polygon>
                            <polygon id="Fill-23" fill="#25B34B" mask="url(#mask-2)" points="104.494708 136.682127 128.346077 136.682127 128.346077 126.721857 104.494708 126.721857"></polygon>
                        </g>
                        <polygon id="Fill-25" fill="#FBFCFE" points="30.2036203 164.443023 0 188.395508 309.990973 188.395508 278.995362 164.443023"></polygon>
                        <path d="M4.20926332,203.135499 L305.333408,203.135499 C307.658022,203.135499 309.543009,201.186048 309.543009,198.781503 L309.543009,188.395508 L0,188.395508 L0,198.781503 C0,201.186048 1.88464887,203.135499 4.20926332,203.135499" id="Fill-26" fill="#DBD6D5"></path>
                        <g id="Group-35" transform="translate(29.565613, 0.000000)">
                            <g id="Group-30" fill="#393A3C">
                                <path d="M243.858582,0.234541804 L5.82006688,0.234541804 C2.7276995,0.234541804 0.221115435,2.80897606 0.221115435,5.98427383 L0.221115435,163.757685 L248.97598,163.757685 L248.97598,5.4897517 C248.97598,2.58725778 246.684961,0.234541804 243.858582,0.234541804 L243.858582,0.234541804 Z M12.0653766,151.594456 L237.131719,151.594456 L237.131719,12.3977706 L12.0653766,12.3977706 L12.0653766,151.594456 Z" id="Fill-28"></path>
                            </g>
                            <polygon id="Fill-31" fill="#393A3C" points="216.693431 166.401728 31.7114525 166.401728 24.3429685 175.350737 224.061577 175.350737"></polygon>
                            <path d="M196.683466,37.4401212 C196.451656,37.1767004 196.345396,36.8482932 196.364686,36.4545521 C196.383637,36.060811 196.521707,35.7449146 196.777881,35.5065153 L198.807311,33.6726479 C199.065177,33.3988015 199.377527,33.2712614 199.743684,33.2900275 C200.109841,33.3091411 200.425237,33.4690007 200.69021,33.7696062 L206.254305,40.0864922 L219.435276,27.8426386 C219.728675,27.5705298 220.057946,27.4436847 220.424103,27.4627983 C220.789921,27.4815645 221.088396,27.640729 221.318513,27.9395969 L223.159112,29.9725937 C223.390582,30.2360145 223.497181,30.5644217 223.47823,30.9581628 C223.458602,31.3519039 223.32087,31.6681478 223.064696,31.9061996 L206.865469,46.9024182 C206.607603,47.1762646 206.286792,47.3031097 205.903038,47.2836485 C205.518946,47.2638398 205.212349,47.1043277 204.982232,46.8054598 L196.683466,37.4401212 Z" id="Fill-33" fill="#25B34B"></path>
                        </g>
                    </g>
                </g>
            </g>
        </g>
    </g>
</svg>