<?xml version="1.0" encoding="UTF-8"?>
<svg width="310px" height="198px" viewBox="0 0 310 198" version="1.1" xmlns="http://www.w3.org/2000/svg" xmlns:xlink="http://www.w3.org/1999/xlink">
    <title>1</title>
    <defs>
        <polygon id="path-1" points="0 196.956774 309.954762 196.956774 309.954762 0.228037431 0 0.228037431"></polygon>
        <polygon id="path-3" points="0.220698876 0.227958409 248.887846 0.227958409 248.887846 159.137562 0.220698876 159.137562"></polygon>
    </defs>
    <g id="Page-1" stroke="none" stroke-width="1" fill="none" fill-rule="evenodd">
        <g id="01b.-Homepage-Copy" transform="translate(-255.000000, -515.000000)">
            <g id="Intro" transform="translate(-19.000000, 0.000000)">
                <g id="Items" transform="translate(274.000000, 512.000000)">
                    <g id="1" transform="translate(0.000000, 3.000000)">
                        <polygon id="Fill-1" fill="#60C8F7" points="37.6834178 155.774903 272.307555 155.774903 272.307555 8.95258064 37.6834178 8.95258064"></polygon>
                        <polygon id="Fill-2" fill="#7AD6FF" points="37.2348057 155.774903 271.858943 155.774903 271.858943 8.95258064 37.2348057 8.95258064"></polygon>
                        <polygon id="Fill-3" fill="#60C8F7" points="271.858943 193.375742 37.2348057 193.375742 37.2348057 80.5732258 271.858943 87.322674"></polygon>
                        <g id="Group-19">
                            <path d="M212.612656,75.2124543 C201.703072,103.497879 185.62652,121.497634 154.580044,121.497634 C123.533569,121.497634 95.0323352,98.1942355 95.0323352,76.7249336 C95.0323352,55.2556318 132.776443,40.7254245 163.822919,40.7254245 C194.869057,40.7254245 220.340094,55.1769166 212.612656,75.2124543" id="Fill-4" fill="#8DE7FF"></path>
                            <mask id="mask-2" fill="white">
                                <use xlink:href="#path-1"></use>
                            </mask>
                            <g id="Clip-7"></g>
                            <polygon id="Fill-6" fill="#00A2DB" mask="url(#mask-2)" points="151.911482 59.6285789 178.665463 59.6285789 178.665463 55.5745801 151.911482 55.5745801"></polygon>
                            <polygon id="Fill-8" fill="#00A2DB" mask="url(#mask-2)" points="147.995647 36.2978159 166.82726 36.2978159 166.82726 32.2438171 147.995647 32.2438171"></polygon>
                            <polygon id="Fill-9" fill="#00A2DB" mask="url(#mask-2)" points="73.7849583 73.6665632 111.812323 73.6665632 111.812323 69.6125644 73.7849583 69.6125644"></polygon>
                            <polygon id="Fill-10" fill="#00A2DB" mask="url(#mask-2)" points="92.8893365 85.3319447 135.579425 85.3319447 135.579425 81.2779459 92.8893365 81.2779459"></polygon>
                            <polygon id="Fill-11" fill="#00A2DB" mask="url(#mask-2)" points="81.0514716 62.0011817 99.8830848 62.0011817 99.8830848 57.9471829 81.0514716 57.9471829"></polygon>
                            <polygon id="Fill-12" fill="#00A2DB" mask="url(#mask-2)" points="116.566081 112.419075 154.593446 112.419075 154.593446 108.365077 116.566081 108.365077"></polygon>
                            <polygon id="Fill-13" fill="#00A2DB" mask="url(#mask-2)" points="127.748092 124.084457 154.502073 124.084457 154.502073 120.030458 127.748092 120.030458"></polygon>
                            <polygon id="Fill-14" fill="#00A2DB" mask="url(#mask-2)" points="127.793779 100.753694 146.625392 100.753694 146.625392 96.6996951 127.793779 96.6996951"></polygon>
                            <polygon id="Fill-15" fill="#00A2DB" mask="url(#mask-2)" points="171.230079 82.7617094 226.290703 82.7617094 226.290703 78.7077107 171.230079 78.7077107"></polygon>
                            <polygon id="Fill-16" fill="#00A2DB" mask="url(#mask-2)" points="193.340287 94.4267531 218.243121 94.4267531 218.243121 90.3727543 193.340287 90.3727543"></polygon>
                            <polygon id="Fill-17" fill="#00A2DB" mask="url(#mask-2)" points="191.917239 71.0963279 213.849438 71.0963279 213.849438 67.0423292 191.917239 67.0423292"></polygon>
                            <polygon id="Fill-18" fill="#00A2DB" mask="url(#mask-2)" points="122.31479 47.9631974 160.342154 47.9631974 160.342154 43.9091986 122.31479 43.9091986"></polygon>
                        </g>
                        <g id="Group-52" transform="translate(83.441854, 25.067226)">
                            <path d="M78.8499085,68.0135005 C78.8499085,68.0135005 79.3602613,67.05965 78.9735996,64.5887101 C78.5869379,62.1181087 78.603543,60.8484518 78.603543,60.8484518 C78.603543,60.8484518 78.8837965,58.4672104 79.4036379,57.7888866 C79.9231404,57.1105628 81.8594988,57.2703277 82.2342997,57.644692 C82.6094395,58.0190564 82.9107035,58.0095788 82.6375665,58.845975 C82.3647683,59.6820328 82.75143,62.1529726 82.9171422,63.4717099 C83.0835321,64.7907856 83.3326086,66.7692299 84.0181622,67.4096434 C84.7037157,68.0503953 87.1904147,70.179127 87.3683265,73.5944398 C87.5458994,77.0097526 85.5993747,90.588752 76.3940477,98.3813517 C66.7081893,106.581149 58.1979045,109.656623 54.4536232,109.553723 C50.709003,109.450485 46.2788292,108.706834 46.0226362,108.273235 C45.7664432,107.839974 44.3499262,107.001886 45.3797815,105.369373 C46.4096368,103.73686 50.4416269,99.9136729 53.1065765,98.4504026 C55.7711873,96.9874708 63.5928686,92.8244448 67.3683269,88.567997 C71.1437851,84.3112107 73.8233066,79.7579116 75.2425346,75.4097344 C76.6617626,71.0615572 78.5957488,69.4009502 78.8499085,68.0135005" id="Fill-20" fill="#FFD529"></path>
                            <path d="M79.6489529,57.5788229 C79.55,57.6373808 79.4662967,57.7067702 79.403604,57.789022 C78.8837626,58.4673458 78.603848,60.8485872 78.603848,60.8485872 C78.603848,60.8485872 78.586904,62.1182441 78.9735657,64.5888455 C79.3602274,67.0594469 78.8498747,68.0136359 78.8498747,68.0136359 C78.5960538,69.4007471 76.6620676,71.0616925 75.2425007,75.4098698 C73.8232727,79.758047 71.1437513,84.3113461 67.368293,88.5677939 C63.5928347,92.8245802 55.7714923,96.9876062 53.1065427,98.450538 C50.441593,99.9138083 46.4099418,103.736995 45.3797476,105.36917 C44.8649894,106.185595 44.9615701,106.80333 45.2187798,107.271116 C45.2187798,107.271116 59.9329345,102.208736 68.2815737,95.8222026 C76.6295351,89.4356692 81.2837083,79.1376042 82.0814311,74.2569902 C82.8788149,69.3767146 81.2084771,69.9257372 80.6557643,66.13606 C80.1030516,62.3463829 80.8238487,57.3225898 80.8238487,57.3225898 L79.6489529,57.5788229 Z" id="Fill-22" fill="#F3C51C"></path>
                            <path d="M45.379917,105.369305 C44.3497229,107.001818 45.7665787,107.839907 46.0227717,108.273506 C46.0373436,108.298215 46.0675039,108.324278 46.1091861,108.351357 C46.4185832,108.361512 46.9801068,108.300584 47.0905815,107.743438 C47.2098672,107.142628 46.6405494,105.378106 46.1983114,104.306801 C45.8462154,104.71366 45.5642676,105.076854 45.379917,105.369305" id="Fill-24" fill="#3E3300"></path>
                            <path d="M82.2344013,57.6447597 C81.883322,57.2940894 80.1621522,57.1316166 79.5186198,57.6698076 L80.5921905,59.0203624 C80.5921905,59.0203624 82.1442593,58.5302363 82.500083,58.3535472 C82.6742671,58.2672335 82.7047663,58.1717808 82.6908722,58.0962986 C82.6075078,57.9331489 82.4316293,57.841758 82.2344013,57.6447597" id="Fill-26" fill="#FCE7BE"></path>
                            <path d="M34.1012565,31.7761177 C34.1012565,31.7761177 34.6116093,30.8222672 34.2249476,28.3513273 C33.8382859,25.8807259 33.854891,24.611069 33.854891,24.611069 C33.854891,24.611069 34.1351445,22.2298276 34.6549859,21.5511654 C35.1744884,20.8731801 37.1108468,21.032945 37.4856477,21.4073093 C37.8607874,21.7816736 38.1620515,21.772196 37.8892533,22.6085922 C37.6161163,23.44465 38.002778,25.9155899 38.168829,27.2343271 C38.3348801,28.5534028 38.5839566,30.5318472 39.2695102,31.1722606 C39.9550637,31.8130126 42.4417626,33.9417442 42.6196745,37.357057 C42.7972474,40.7723698 40.8507227,54.3513692 31.6453957,62.1439689 C21.9595373,70.343766 13.4492525,73.41924 9.70497116,73.3163406 C5.96035095,73.2131027 1.53051608,72.4694513 1.27398418,72.0358521 C1.01813004,71.6025914 -0.398725804,70.7645028 0.631129473,69.13199 C1.66132363,67.4994773 5.69297491,63.6762902 8.35792453,62.2130199 C11.0228741,60.7500881 18.8442166,56.5870621 22.6196749,52.3306143 C26.395472,48.0738279 29.0746546,43.5205289 30.4938826,39.1723516 C31.9131106,34.8241744 33.8470968,33.1635674 34.1012565,31.7761177" id="Fill-28" fill="#FFD529"></path>
                            <path d="M34.9004703,21.3414401 C34.8015175,21.399998 34.7174753,21.4693874 34.6547826,21.5513008 C34.13528,22.229963 33.8550266,24.6112044 33.8550266,24.6112044 C33.8550266,24.6112044 33.8384215,25.8808613 34.2247443,28.3514627 C34.611406,30.8220641 34.1013921,31.7762531 34.1013921,31.7762531 C33.8472323,33.1633643 31.9132461,34.8243098 30.4940181,39.172487 C29.0747901,43.5206642 26.3952687,48.0739633 22.6198104,52.3304112 C18.8443522,56.5871975 11.0230097,60.7502235 8.35806008,62.2131553 C5.69311046,63.6760871 1.66145918,67.4996127 0.631265025,69.1317869 C0.116167946,69.9482126 0.213087528,70.5659475 0.470297188,71.0337337 C0.470297188,71.0337337 15.1844519,65.9713533 23.5327522,59.5848199 C31.8810526,53.1982865 36.5352258,42.9002214 37.3326096,38.0196074 C38.1303323,33.1393319 36.4599945,33.6883544 35.9072818,29.8986773 C35.354569,26.1090002 36.0753661,21.085207 36.0753661,21.085207 L34.9004703,21.3414401 Z" id="Fill-30" fill="#F3C51C"></path>
                            <path d="M0.631265025,69.1319223 C-0.398590252,70.7644351 1.01792671,71.6025237 1.27411973,72.0361229 C1.28869156,72.0608323 1.31919073,72.0868957 1.36053405,72.1139745 C1.66993117,72.124129 2.23145476,72.0628632 2.34192953,71.5060555 C2.46121517,70.9052448 1.89189735,69.1407229 1.4496594,68.0694182 C1.09756343,68.4762771 0.815615558,68.8394714 0.631265025,69.1319223" id="Fill-32" fill="#3E3300"></path>
                            <path d="M37.4857493,21.407377 C37.13467,21.0567066 35.4135002,20.8942338 34.7699678,21.4324249 L35.8435385,22.7829797 C35.8435385,22.7829797 37.3956073,22.2928535 37.751431,22.1161644 C37.9256151,22.0298507 37.9561143,21.934398 37.9425591,21.8589159 C37.8588558,21.6957661 37.6829773,21.6043752 37.4857493,21.407377" id="Fill-34" fill="#FCE7BE"></path>
                            <path d="M132.605202,33.2464285 C132.605202,33.2464285 133.115216,32.292578 132.728893,29.8216381 C132.342232,27.3510367 132.358837,26.0817183 132.358837,26.0817183 C132.358837,26.0817183 132.63909,23.7001384 133.158593,23.0218146 C133.678434,22.3434909 135.614793,22.5032557 135.989594,22.8776201 C136.364394,23.2523229 136.665997,23.2428453 136.39286,24.078903 C136.120062,24.9149608 136.506724,27.3859007 136.672436,28.7049764 C136.838487,30.0237136 137.087564,32.0021579 137.773117,32.6429099 C138.45901,33.2833234 140.945709,35.412055 141.12362,38.8273678 C141.301193,42.2426806 139.354669,55.82168 130.149342,63.6142797 C120.463483,71.8140768 111.953198,74.8895508 108.208917,74.7866513 C104.464297,74.6834135 100.034123,73.9397621 99.7779301,73.5065014 C99.521737,73.0732407 98.1052201,72.2348136 99.1350754,70.6023008 C100.164931,68.9701266 104.196921,65.1466009 106.86187,63.6836691 C109.526481,62.2207373 117.348163,58.0577113 121.123621,53.800925 C124.899079,49.5441387 127.5786,44.9908396 128.997828,40.6430009 C130.417056,36.2944852 132.351043,34.6338782 132.605202,33.2464285" id="Fill-36" fill="#FFD529"></path>
                            <path d="M133.404247,22.811717 C133.305294,22.8702749 133.221591,22.9396643 133.158559,23.0219162 C132.639056,23.70024 132.358803,26.0814813 132.358803,26.0814813 C132.358803,26.0814813 132.342198,27.3511383 132.72886,29.8217397 C133.115182,32.2923411 132.605169,33.24653 132.605169,33.24653 C132.351348,34.6336412 130.417023,36.2945867 128.997795,40.6427639 C127.578567,44.9909412 124.899045,49.5442403 121.123587,53.8010266 C117.348129,58.0574744 109.526786,62.2205004 106.861837,63.6837707 C104.196887,65.1467025 100.165236,68.9698896 99.1350415,70.6024024 C98.6199444,71.4184895 98.716864,72.0362245 98.9740736,72.5040106 C98.9740736,72.5040106 113.688228,67.4419687 122.036868,61.0550968 C130.384829,54.6689019 135.039002,44.3704983 135.836725,39.4898843 C136.634109,34.6096088 134.963771,35.1586313 134.411058,31.3689542 C133.858345,27.5792771 134.579143,22.555484 134.579143,22.555484 L133.404247,22.811717 Z" id="Fill-38" fill="#F3C51C"></path>
                            <path d="M99.1352109,70.6024024 C98.1050167,72.2345766 99.5218726,73.0730038 99.7780656,73.5066029 C99.7926374,73.5313123 99.8227977,73.5573757 99.8644799,73.5844545 C100.173877,73.5942705 100.735401,73.5333433 100.845875,72.9761971 C100.964822,72.3757248 100.395843,70.6108645 99.9536053,69.5398982 C99.6015093,69.9467571 99.3195614,70.3099514 99.1352109,70.6024024" id="Fill-40" fill="#3E3300"></path>
                            <path d="M135.989695,22.8776539 C135.638277,22.5269835 133.917446,22.3645108 133.273914,22.9030403 L134.347484,24.2532566 C134.347484,24.2532566 135.899214,23.7634689 136.255377,23.5867798 C136.429561,23.5001277 136.46006,23.4046749 136.446166,23.3291928 C136.362463,23.1660431 136.186923,23.0746521 135.989695,22.8776539" id="Fill-42" fill="#FCE7BE"></path>
                            <path d="M87.2237943,10.8900414 C87.2237943,10.8900414 87.7341471,9.93619087 87.3474854,7.46525098 C86.9608237,4.99464957 86.9774288,3.72499265 86.9774288,3.72499265 C86.9774288,3.72499265 87.2576823,1.34375127 87.7775237,0.665427497 C88.2970262,-0.0128962753 90.2333845,0.146868605 90.6081854,0.521232922 C90.9833252,0.895935725 91.2845892,0.886119662 91.0117911,1.72251589 C90.7386541,2.55857363 91.1253158,5.02951352 91.2913668,6.34858924 C91.4574178,7.66732647 91.7064944,9.64577081 92.3920479,10.2861843 C93.0776015,10.9269362 95.5643004,13.0556679 95.7422122,16.4709807 C95.9197852,19.8862935 93.9732604,33.4652928 84.7679334,41.2578926 C75.0820751,49.4576897 66.5721291,52.5331636 62.8275089,52.4302642 C59.0828887,52.3270263 54.6530539,51.583375 54.396522,51.1497758 C54.1406678,50.7165151 52.723812,49.8784264 53.7536672,48.2459137 C54.7838614,46.6134009 58.8155127,42.7902138 61.4804623,41.3269435 C64.1454119,39.8640117 71.9667544,35.7009857 75.7422126,31.4445379 C79.5180098,27.1877516 82.1971924,22.6344525 83.6164204,18.2862753 C85.0356484,13.938098 86.9696346,12.277491 87.2237943,10.8900414" id="Fill-44" fill="#FFD529"></path>
                            <path d="M88.0230081,0.455363758 C87.9240552,0.513921648 87.8403519,0.583311056 87.7773203,0.665562891 C87.2578178,1.34388666 86.9775643,3.72512805 86.9775643,3.72512805 C86.9775643,3.72512805 86.9609592,4.99478497 87.3476209,7.46538637 C87.7339437,9.93598777 87.2239299,10.8901768 87.2239299,10.8901768 C86.9697701,12.2772879 85.0357839,13.9382334 83.6165559,18.2864107 C82.1973279,22.6345879 79.5178065,27.187887 75.7423482,31.4443348 C71.9668899,35.7011211 64.1455475,39.8641471 61.4805978,41.3270789 C58.8156482,42.7903492 54.783997,46.6135363 53.7538028,48.2457106 C53.2387057,49.0621362 53.3356253,49.6798712 53.592835,50.1476573 C53.592835,50.1476573 68.3069897,45.0856154 76.65529,38.6987435 C85.0035903,32.3122101 89.6577635,22.014145 90.4551474,17.133531 C91.2528701,12.2532555 89.5825323,12.802278 89.0298195,9.01260092 C88.4771068,5.2229238 89.1979039,0.199130676 89.1979039,0.199130676 L88.0230081,0.455363758 Z" id="Fill-46" fill="#F3C51C"></path>
                            <path d="M53.7538028,48.245846 C52.7239475,49.8783587 54.1404645,50.7164474 54.3966575,51.1500466 C54.4115682,51.1750944 54.4417285,51.2011578 54.4830718,51.2278981 C54.7924689,51.2380526 55.3539925,51.1771254 55.4644673,50.6199792 C55.5837529,50.0191685 55.0144351,48.2546466 54.5721972,47.1833418 C54.2201012,47.5902007 53.9381533,47.9537335 53.7538028,48.245846" id="Fill-48" fill="#3E3300"></path>
                            <path d="M90.6082871,0.521300619 C90.2572078,0.170630246 88.5363769,0.00815748648 87.8925055,0.546348503 L88.9660763,1.89690332 C88.9660763,1.89690332 90.5181451,1.40677716 90.8739687,1.23008803 C91.0481529,1.14377438 91.0786521,1.04832163 91.0650969,0.972839498 C90.9813936,0.809689768 90.8055151,0.718298841 90.6082871,0.521300619" id="Fill-50" fill="#FCE7BE"></path>
                        </g>
                        <polygon id="Fill-53" fill="#FBFCFE" points="30.2032819 159.803564 0 183.080274 309.990973 183.080274 278.995362 159.803564"></polygon>
                        <path d="M4.2092591,197.404403 L305.332763,197.404403 C307.657714,197.404403 309.542361,195.509952 309.542361,193.173248 L309.542361,183.080274 L0,183.080274 L0,193.173248 C0,195.509952 1.88430881,197.404403 4.2092591,197.404403" id="Fill-54" fill="#DBD6D5"></path>
                        <g id="Group-63" transform="translate(29.608400, 0.000000)">
                            <g id="Group-58">
                                <mask id="mask-4" fill="white">
                                    <use xlink:href="#path-3"></use>
                                </mask>
                                <g id="Clip-57"></g>
                                <path d="M243.77226,0.227924637 L5.81766837,0.227924637 C2.72673393,0.227924637 0.220698876,2.72972596 0.220698876,5.81543852 L0.220698876,159.137562 L248.887846,159.137562 L248.887846,5.33486842 C248.887846,2.51426305 246.597638,0.227924637 243.77226,0.227924637 L243.77226,0.227924637 Z M12.0607673,147.317497 L237.047778,147.317497 L237.047778,12.0479903 L12.0607673,12.0479903 L12.0607673,147.317497 Z" id="Fill-56" fill="#393A3C" mask="url(#mask-4)"></path>
                            </g>
                            <polygon id="Fill-59" fill="#393A3C" points="216.616589 161.707008 31.7000918 161.707008 24.3345544 170.403537 223.982127 170.403537"></polygon>
                            <path d="M195.860645,36.3838168 C195.628918,36.127828 195.522357,35.8086862 195.541978,35.4260538 C195.560922,35.0434214 195.698943,34.7364374 195.955027,34.5047641 L197.983738,32.7226359 C198.241513,32.4565156 198.553753,32.3325737 198.919442,32.3508104 C199.285808,32.3693848 199.600753,32.5247342 199.865971,32.8168587 L205.427758,38.9555254 L218.604401,27.0571096 C218.897697,26.7926778 219.226851,26.6694114 219.59254,26.6879858 C219.958567,26.7062225 220.256937,26.8608965 220.486634,27.1513324 L222.326581,29.1269719 C222.558308,29.3829608 222.664868,29.7021026 222.645586,30.084735 C222.626304,30.4673674 222.488282,30.7746891 222.232537,31.0060247 L206.038706,45.5791524 C205.780931,45.8452728 205.460234,45.9685392 205.076616,45.9496271 C204.692998,45.9303772 204.386509,45.7753655 204.156473,45.4849296 L195.860645,36.3838168 Z" id="Fill-61" fill="#25B34B"></path>
                        </g>
                    </g>
                </g>
            </g>
        </g>
    </g>
</svg>