<?xml version="1.0" encoding="UTF-8"?>
<svg width="310px" height="199px" viewBox="0 0 310 199" version="1.1" xmlns="http://www.w3.org/2000/svg" xmlns:xlink="http://www.w3.org/1999/xlink">
    <title>3</title>
    <defs>
        <polygon id="path-1" points="0 196.956774 309.954762 196.956774 309.954762 0.228037431 0 0.228037431"></polygon>
        <polygon id="path-3" points="0.220810868 0.227958409 248.976014 0.227958409 248.976014 159.137562 0.220810868 159.137562"></polygon>
    </defs>
    <g id="Page-1" stroke="none" stroke-width="1" fill="none" fill-rule="evenodd">
        <g id="01b.-Homepage-Copy" transform="translate(-1038.000000, -515.000000)">
            <g id="Intro" transform="translate(-19.000000, 0.000000)">
                <g id="Items" transform="translate(274.000000, 512.000000)">
                    <g id="3" transform="translate(783.000000, 3.000000)">
                        <polygon id="Fill-1" fill="#7AD6FF" points="38.0769259 155.774903 272.362011 155.774903 272.362011 8.95258064 38.0769259 8.95258064"></polygon>
                        <polygon id="Fill-2" fill="#60C8F7" points="272.362011 196.061516 38.0769259 196.061516 38.0769259 83.259 272.362011 90.0084482"></polygon>
                        <g id="Group-15">
                            <path d="M225.609873,74.2636158 C212.320872,108.718214 192.73797,130.64359 154.920764,130.64359 C117.103219,130.64359 82.3855834,102.257829 82.3855834,76.1061583 C82.3855834,49.9544878 128.36205,32.255067 166.179595,32.255067 C203.996802,32.255067 235.022634,49.8585432 225.609873,74.2636158" id="Fill-3" fill="#96E9FF"></path>
                            <path d="M199.791619,43.284072 L199.696523,123.846825 C199.696523,125.973147 197.969914,127.696435 195.839911,127.696435 L117.691728,127.696435 C116.121129,127.696435 112.356905,124.129929 112.356905,124.129929 C111.894964,123.668449 111.653334,123.031971 111.692929,122.380967 L122.721297,43.5918381 C122.791688,42.4381376 123.716585,41.5205825 124.872621,41.4574077 L195.134986,38.3324503 C195.573237,38.3084642 196.004382,38.4544081 196.337385,38.7395394 L198.841002,41.2236271 C199.445417,41.7388228 199.791619,42.4915153 199.791619,43.284072" id="Fill-5" fill="#688187"></path>
                            <path d="M113.151984,38.2373503 L195.025474,38.2373503 C195.833278,38.2373503 196.488793,38.8913954 196.488793,39.6981412 L196.488793,122.668969 C196.488793,123.475715 195.833278,124.12976 195.025474,124.12976 L113.151984,124.12976 C112.343842,124.12976 111.688665,123.475715 111.688665,122.668969 L111.688665,39.6981412 C111.688665,38.8913954 112.343842,38.2373503 113.151984,38.2373503" id="Fill-7" fill="#FFFFFF"></path>
                            <mask id="mask-2" fill="white">
                                <use xlink:href="#path-1"></use>
                            </mask>
                            <g id="Clip-10"></g>
                            <polygon id="Fill-9" fill="#79ACB7" mask="url(#mask-2)" points="125.699309 56.7407804 172.221644 56.7407804 172.221644 52.9198866 125.699309 52.9198866"></polygon>
                            <polygon id="Fill-11" fill="#79ACB7" mask="url(#mask-2)" points="125.699647 84.2160815 163.674218 84.2160815 163.674218 80.3951876 125.699647 80.3951876"></polygon>
                            <polygon id="Fill-12" fill="#DDE6E8" mask="url(#mask-2)" points="125.699309 67.51462 180.45671 67.51462 180.45671 60.511675 125.699309 60.511675"></polygon>
                            <polygon id="Fill-13" fill="#DDE6E8" mask="url(#mask-2)" points="125.699309 96.0679469 180.45671 96.0679469 180.45671 89.0650019 125.699309 89.0650019"></polygon>
                            <polygon id="Fill-14" fill="#25B34B" mask="url(#mask-2)" points="125.699647 113.521425 145.781039 113.521425 145.781039 105.371874 125.699647 105.371874"></polygon>
                        </g>
                        <polygon id="Fill-16" fill="#FBFCFE" points="30.2036203 159.803564 0 183.080274 309.990973 183.080274 278.995362 159.803564"></polygon>
                        <path d="M4.20926792,197.404403 L305.333403,197.404403 C307.658358,197.404403 309.543009,195.509952 309.543009,193.173248 L309.543009,183.080274 L0,183.080274 L0,193.173248 C0,195.509952 1.88465093,197.404403 4.20926792,197.404403" id="Fill-17" fill="#DBD6D5"></path>
                        <g id="Group-30" transform="translate(29.565613, 0.000000)">
                            <path d="M159.488086,118.12646 C159.488086,126.469738 152.711138,133.232842 144.350782,133.232842 C135.990426,133.232842 129.213478,126.469738 129.213478,118.12646 C129.213478,109.783182 135.990426,103.020078 144.350782,103.020078 C152.711138,103.020078 159.488086,109.783182 159.488086,118.12646" id="Fill-19" fill="#25B34B"></path>
                            <g id="Group-23">
                                <mask id="mask-4" fill="white">
                                    <use xlink:href="#path-3"></use>
                                </mask>
                                <g id="Clip-22"></g>
                                <path d="M5.82010072,0.227924637 C2.72773334,0.227924637 0.220810868,2.72972596 0.220810868,5.81543852 L0.220810868,159.137562 L248.976014,159.137562 L248.976014,5.33486842 C248.976014,2.51426305 246.684995,0.227924637 243.858616,0.227924637 L5.82010072,0.227924637 Z M12.065072,147.317497 L237.131753,147.317497 L237.131753,12.0479903 L12.065072,12.0479903 L12.065072,147.317497 Z" id="Fill-21" fill="#393A3C" mask="url(#mask-4)"></path>
                            </g>
                            <polygon id="Fill-24" fill="#393A3C" points="216.69316 161.707008 31.7115202 161.707008 24.3430362 170.403537 224.061644 170.403537"></polygon>
                            <path d="M196.683499,36.3838168 C196.45169,36.127828 196.34543,35.8086862 196.36472,35.4260538 C196.38367,35.0434214 196.521741,34.7364374 196.777915,34.5047641 L198.807345,32.7226359 C199.065211,32.4565156 199.377561,32.3325737 199.743718,32.3508104 C200.109875,32.3693848 200.425271,32.5247342 200.690244,32.8168587 L206.254001,38.9555254 L219.43531,27.0571096 C219.728709,26.7926778 220.05798,26.6694114 220.423798,26.6879858 C220.789955,26.7062225 221.08843,26.8608965 221.318547,27.1513324 L223.158807,29.1269719 C223.390616,29.3829608 223.497215,29.7021026 223.477925,30.084735 C223.458636,30.4673674 223.320904,30.7746891 223.06473,31.0060247 L206.865503,45.5791524 C206.607298,45.8452728 206.286826,45.9685392 205.902734,45.9496271 C205.51898,45.9303772 205.212383,45.7753655 204.982266,45.4849296 L196.683499,36.3838168 Z" id="Fill-26" fill="#25B34B"></path>
                            <path d="M136.684263,118.926577 C136.541455,118.768864 136.475804,118.571637 136.487648,118.335574 C136.499492,118.09951 136.584432,117.910052 136.742469,117.767198 L137.994576,116.667931 C138.153966,116.503464 138.34652,116.42714 138.572238,116.438284 C138.798294,116.449767 138.99254,116.545678 139.156329,116.725681 L142.589134,120.513505 L150.722081,113.171894 C150.903129,113.009115 151.106173,112.932791 151.331891,112.944273 C151.557947,112.955418 151.742041,113.050991 151.883834,113.230319 L153.019529,114.449136 C153.162337,114.607187 153.228327,114.804076 153.216482,115.04014 C153.2043,115.276203 153.119359,115.465662 152.961323,115.608516 L142.96612,124.599871 C142.807407,124.764339 142.609439,124.840325 142.372892,124.828843 C142.135668,124.816685 141.946499,124.721111 141.804706,124.541784 L136.684263,118.926577 Z" id="Fill-28" fill="#FFFFFF"></path>
                        </g>
                    </g>
                </g>
            </g>
        </g>
    </g>
</svg>