<?xml version="1.0" encoding="UTF-8"?>
<svg width="30px" height="26px" viewBox="0 0 30 26" version="1.1" xmlns="http://www.w3.org/2000/svg" xmlns:xlink="http://www.w3.org/1999/xlink">
    <title>Group 3</title>
    <defs>
        <polygon id="path-1" points="0 0 30 0 30 25.8592379 0 25.8592379"></polygon>
    </defs>
    <g id="Page-1" stroke="none" stroke-width="1" fill="none" fill-rule="evenodd">
        <g id="02c5.-Tipkaart-Detail---Kanaalsturing" transform="translate(-231.000000, -1067.000000)">
            <g id="Group-3" transform="translate(231.000000, 1067.000000)">
                <mask id="mask-2" fill="white">
                    <use xlink:href="#path-1"></use>
                </mask>
                <g id="Clip-2"></g>
                <path d="M30.0000717,25.8592379 L17.8308604,25.8592379 L17.8308604,14.4506135 C17.8308604,10.8459371 18.4924975,7.88819868 19.8168473,5.57739834 C21.1399423,3.26803205 23.4638284,1.40895902 26.7886848,0 L29.492954,4.90142067 C27.3513722,5.9154768 25.9013633,7.05626754 25.1409557,8.32397214 C24.3801895,9.59149749 23.9999857,11.3238359 23.9999857,13.5211667 L30.0000717,13.5211667 L30.0000717,25.8592379 Z M12.0844228,25.8592379 L0,25.8592379 L0,14.4506135 C0,10.7892919 0.633673045,7.81703371 1.90137765,5.53509372 C3.168903,3.25351224 5.46374948,1.40895902 8.78860596,0 L11.4928751,4.90142067 C9.35129328,5.9154768 7.90146369,7.05626754 7.14087678,8.32397214 C6.38011061,9.59149749 5.99990679,11.3238359 5.99990679,13.5211667 L12.0844228,13.5211667 L12.0844228,25.8592379 Z" id="Fill-1" fill="#000000" mask="url(#mask-2)"></path>
            </g>
        </g>
    </g>
</svg>